<?xml version="1.0" encoding="utf-8"?>
<!-- Generator: Adobe Illustrator 26.1.0, SVG Export Plug-In . SVG Version: 6.00 Build 0)  -->
<svg version="1.1" id="Layer_1" xmlns="http://www.w3.org/2000/svg" xmlns:xlink="http://www.w3.org/1999/xlink" x="0px" y="0px"
	 viewBox="0 0 566.93 566.93" style="enable-background:new 0 0 566.93 566.93;" xml:space="preserve">
<style type="text/css">
	.st0{fill:#10144A;}
	.st1{fill:none;stroke:#1086F4;stroke-width:0.7646;stroke-miterlimit:10;}
	.st2{fill:#1086F4;}
	.st3{fill:#1086F4;stroke:#231F20;stroke-miterlimit:10;}
</style>
<g>
	<g>
		<g>
			<line class="st1" x1="393.18" y1="363.12" x2="365.66" y2="354.71"/>
			<line class="st1" x1="370.24" y1="337.13" x2="369.48" y2="350.89"/>
			<line class="st1" x1="395.48" y1="337.13" x2="402.36" y2="310.37"/>
			<line class="st1" x1="377.13" y1="321.83" x2="400.83" y2="309.6"/>
			<line class="st1" x1="400.45" y1="306.16" x2="380.57" y2="290.87"/>
			<line class="st1" x1="375.98" y1="309.22" x2="378.27" y2="291.63"/>
			<line class="st1" x1="378.27" y1="277.87" x2="378.27" y2="290.87"/>
			<line class="st1" x1="382.86" y1="288.57" x2="414.21" y2="273.28"/>
			<line class="st1" x1="428.74" y1="290.87" x2="414.21" y2="273.28"/>
			<line class="st1" x1="416.5" y1="269.46" x2="437.15" y2="254.17"/>
			<line class="st1" x1="414.21" y1="270.22" x2="400.45" y2="258.76"/>
			<line class="st1" x1="421.09" y1="220.53" x2="423.38" y2="212.12"/>
			<line class="st1" x1="413.44" y1="222.82" x2="385.15" y2="189.94"/>
			<line class="st1" x1="367.57" y1="197.59" x2="385.92" y2="188.41"/>
			<line class="st1" x1="380.57" y1="216.7" x2="385.15" y2="189.94"/>
			<line class="st1" x1="411.15" y1="188.41" x2="385.92" y2="188.41"/>
			<line class="st1" x1="386.68" y1="186.12" x2="384.39" y2="154.77"/>
			<line class="st1" x1="382.86" y1="186.12" x2="362.22" y2="174.65"/>
			<line class="st1" x1="354.57" y1="163.95" x2="384.39" y2="154.77"/>
			<line class="st1" x1="360.69" y1="128.78" x2="341.57" y2="124.95"/>
			<line class="st1" x1="321.69" y1="137.19" x2="336.22" y2="126.48"/>
			<line class="st1" x1="290.35" y1="141.01" x2="281.94" y2="103.55"/>
			<line class="st1" x1="249.06" y1="109.66" x2="281.94" y2="103.55"/>
			<line class="st1" x1="336.99" y1="124.19" x2="288.82" y2="106.6"/>
		</g>
		<polyline class="st1" points="358.78,396 257.85,409.76 197.45,389.88 146.99,339.48 126.37,260.32 174.69,243.99 150.04,212.32 
			130.78,255.32 126.37,255.32 151.96,162.42 242.57,217.09 206.62,265.25 234.91,302.72 267.21,272.14 276.58,310.75 
			234.91,305.01 277.35,362.74 218.09,352.42 186.74,298.9 173.75,247.67 203.57,263.79 188.67,295.84 184.45,300.12 150.04,337.13 
			216.18,352.8 255.17,406.32 261.29,405.56 278.11,366.56 		"/>
	</g>
	<g>
		<line class="st1" x1="230.42" y1="305.01" x2="187.82" y2="300.73"/>
		<polyline class="st1" points="181.38,297.64 150.04,286.66 130.55,261.81 		"/>
		<polyline class="st1" points="169.54,250.35 150.04,284.71 148.13,334.45 		"/>
		<line class="st1" x1="220" y1="349.74" x2="234.91" y2="309.48"/>
		<line class="st1" x1="236.82" y1="296.22" x2="238.35" y2="241.17"/>
	</g>
</g>
<g>
	<path class="st2" d="M374.77,288.95c-1.86,4.58,0.59,9.7,2.14,12.55c4.35,8.02,1.78,16.23,3.22,24.18
		c0.81,4.45-2.19,7.7-5.53,10.23c-1.82,1.38-3.93,2.45-6.04,3.35c-4.18,1.78-6.46,5.7-9.83,8.38c-5.19,4.12,0.17,7.77,0.49,11.66
		c0.44,5.41,1.06,10.83-6.15,12.94c-1.72,0.5-4.46,1.51-4.54,4.57c-0.38,14.53-11.15,22.8-19.68,32.4
		c-2.89,3.26-7.12,4.31-11.01,4.85c-7.22,1.01-14.46,1.21-21.68,3.02c-4.84,1.21-8.53-3.91-7.81-8.13
		c1.34-7.82-2.81-14.07-6.44-18.78c-5.63-7.3-6.59-15.44-8.77-23.45c-1.74-6.39-3.09-13.13-7.07-18.27
		c-8.18-10.55-2.87-19.9,1.76-29.14c2.04-4.08,3.84-6.78,1.46-11.76c-2.13-4.45-1.48-9.98-3.78-15.01
		c-2.07-4.53-4.14-8.59-7.69-12.05c-4.6-4.47-7.14-8.49-4.95-16.36c4.01-14.43,1.63-16.03-14.14-15.26
		c-0.34-0.42-0.76-0.54-1.27-0.38c-1.17-6.04-4.53-8.39-10.85-7.54c-4.86,0.65-9.43,1.9-13.84,3.81c-3.76,1.63-7.15,2.78-11.52,1.2
		c-6.97-2.53-13.07,2.67-19.75,3.41c-4.73-3.74-9.46-7.49-14.18-11.23c-7.62-3.6-8.24-13.12-15.04-17.6
		c-4.17-2.74-7.21-6.45-6.96-12.37c0.08-1.75-0.49-3.18,0.5-5.2c3.67-7.47,4.89-15.39,0.43-22.92c-2.68-4.53,3.34-7.48,0.94-12.33
		c-2.28-4.6,1.18-7.35,6.28-7.66c0.75-0.04,1.2-2.14,2.09-2.97c4.15-3.83,6.41-9.32,12.57-11.52c4.37-1.57,7.67-5.2,6.96-11.5
		c-0.5-4.39,1.86-9.23,6.43-11.44c4.21-2.04,7.1-4.83,8.49-9.31c0.76-2.45,1.85-2.41,4.51-1.49c5.99,2.08,11.92,2.81,18.1-1.46
		c9.34-6.47,20.72-5.14,31.43-6.09c1.26-0.11,2.66,0.46,3.81,0.1c4.07-1.26,7.98-1.61,11.75,0.81c-2.81,4.29,2.68,11.05-5.16,13.92
		c4.91,3.33,8.54,7.19,14.47,5.16c2.61-0.9,5.24,1.48,5.86,2.74c3.23,6.52,10.23,6.07,15.28,9.05c3.79,2.24,6.13,0.45,5.74-3.71
		c-0.43-4.64,2.32-6.2,5.76-7.87c3.43-1.67,4.59,1.31,6.87,2.25c9.31,3.83,18.67,8.97,29.38,5.44c8.35-2.75,17.86,1.35,18.49,8.28
		c0.16,1.72,0.21,4.3-0.81,5.12c-6.31,5.16-0.62,9.11,0.62,13.84c2.51,9.51,12.54,15.92,10.87,27c7.39,4.79,5.73,15.77,14.66,20.27
		c4.16,2.1,10.78,4.88,10.04,12.82c-0.21,2.23,3.52,5.82,7.7,4.2c7.52-2.91,15.84-2.35,23.29-5.87c3.44,11.41-5.24,18.29-9.36,26.62
		c-4.97,10.06-15.43,15-22.97,22.73c-3.7,3.79-7.88,7.08-10.35,11.91C377.8,282.14,374.65,284.68,374.77,288.95z"/>
	<path class="st2" d="M415.28,317.04c4.41,5.52,4.45,10.64,2.89,16.88c-2.84,11.31-7.03,22.17-9.95,33.4
		c-1.32,5.07-4.48,6.51-8.79,6.83c-4.49,0.34-5.37-3.06-6.04-6.48c-0.1-0.5-0.09-1.3-0.39-1.44c-7.8-3.72-2.61-8.11-0.17-11.59
		c3.45-4.92,3.68-9.31,1.46-14.89c-1.54-3.87-2.62-9.64,5.62-7.41c3.41,0.92,5.78-1.61,7.62-3.92
		C410.26,325.01,412.51,321.18,415.28,317.04z"/>
</g>
<g>
	<circle class="st2" cx="415.36" cy="272.14" r="4.59"/>
	<g>
		<g>
			<g>
				<circle class="st2" cx="392.42" cy="217.09" r="4.59"/>
			</g>
			<g>
				<circle class="st2" cx="390.89" cy="266.02" r="5.35"/>
			</g>
			<g>
				<circle class="st2" cx="173.75" cy="244.61" r="10.7"/>
			</g>
			<g>
				<circle class="st2" cx="146.99" cy="337.13" r="9.18"/>
			</g>
			<g>
				<circle class="st2" cx="186.74" cy="298.9" r="6.12"/>
			</g>
			<g>
				<circle class="st2" cx="127.87" cy="258.37" r="6.12"/>
			</g>
			<g>
				<circle class="st2" cx="218.09" cy="352.42" r="6.12"/>
			</g>
			<g>
				<circle class="st2" cx="374.07" cy="386.82" r="6.12"/>
			</g>
			<g>
				<circle class="st2" cx="403.89" cy="308.84" r="6.12"/>
			</g>
			<g>
				<circle class="st2" cx="423.77" cy="317.25" r="5.35"/>
			</g>
			<g>
				<circle class="st2" cx="380.18" cy="290.49" r="5.35"/>
			</g>
			<g>
				<circle class="st2" cx="440.59" cy="275.19" r="3.06"/>
			</g>
			<g>
				<circle class="st2" cx="414.59" cy="250.73" r="3.06"/>
			</g>
			<g>
				<circle class="st2" cx="437.53" cy="254.55" r="3.06"/>
			</g>
			<g>
				<circle class="st2" cx="440.59" cy="223.2" r="4.59"/>
			</g>
			<g>
				<circle class="st2" cx="423.77" cy="209.44" r="4.59"/>
			</g>
			<g>
				<circle class="st2" cx="432.18" cy="186.5" r="3.82"/>
			</g>
			<g>
				<circle class="st2" cx="407.71" cy="166.62" r="2.29"/>
			</g>
			<g>
				<circle class="st2" cx="384.77" cy="155.15" r="3.82"/>
			</g>
			<g>
				<circle class="st2" cx="404.65" cy="141.39" r="2.29"/>
			</g>
			<g>
				<circle class="st2" cx="362.6" cy="145.22" r="2.29"/>
			</g>
			<g>
				<circle class="st2" cx="338.9" cy="125.34" r="5.75"/>
			</g>
			<g>
				<circle class="st2" cx="320.55" cy="96.28" r="2.75"/>
			</g>
			<g>
				<circle class="st2" cx="386.3" cy="188.8" r="5.35"/>
			</g>
			<g>
				<circle class="st2" cx="283.85" cy="103.16" r="7.65"/>
			</g>
			<g>
				<circle class="st2" cx="366.42" cy="353.18" r="7.65"/>
			</g>
			<g>
				<circle class="st2" cx="197.45" cy="389.88" r="6.12"/>
			</g>
			<g>
				<circle class="st2" cx="206.62" cy="265.25" r="6.12"/>
			</g>
			<g>
				<circle class="st2" cx="150.04" cy="286.66" r="4.59"/>
			</g>
			<g>
				<circle class="st2" cx="234.91" cy="305.01" r="10.7"/>
			</g>
			<g>
				<circle class="st2" cx="257.85" cy="409.76" r="10.7"/>
			</g>
		</g>
	</g>
</g>
</svg>
