<?xml version="1.0" encoding="utf-8"?>
<!-- Generator: Adobe Illustrator 26.1.0, SVG Export Plug-In . SVG Version: 6.00 Build 0)  -->
<svg version="1.1" id="Layer_1" xmlns="http://www.w3.org/2000/svg" xmlns:xlink="http://www.w3.org/1999/xlink" x="0px" y="0px"
	 viewBox="0 0 32 32" style="enable-background:new 0 0 32 32;" xml:space="preserve">
<style type="text/css">
	.st0{fill:#FFFFFF;}
	.st1{fill:none;stroke:#1086F4;stroke-width:0.093;stroke-miterlimit:10;}
	.st2{fill:#1086F4;}
</style>
<circle class="st0" cx="16.15" cy="15.61" r="15.05"/>
<g>
	<g>
		<g>
			<line class="st1" x1="24.51" y1="24.09" x2="22.4" y2="23.44"/>
			<line class="st1" x1="22.75" y1="22.1" x2="22.69" y2="23.15"/>
			<line class="st1" x1="24.68" y1="22.1" x2="25.21" y2="20.05"/>
			<line class="st1" x1="23.28" y1="20.93" x2="25.09" y2="20"/>
			<line class="st1" x1="25.06" y1="19.73" x2="23.54" y2="18.56"/>
			<line class="st1" x1="23.19" y1="19.97" x2="23.37" y2="18.62"/>
			<line class="st1" x1="23.37" y1="17.57" x2="23.37" y2="18.56"/>
			<line class="st1" x1="23.72" y1="18.39" x2="26.11" y2="17.22"/>
			<line class="st1" x1="27.22" y1="18.56" x2="26.11" y2="17.22"/>
			<line class="st1" x1="26.29" y1="16.93" x2="27.86" y2="15.76"/>
			<line class="st1" x1="26.11" y1="16.99" x2="25.06" y2="16.11"/>
			<line class="st1" x1="26.64" y1="13.19" x2="26.81" y2="12.55"/>
			<line class="st1" x1="26.05" y1="13.36" x2="23.89" y2="10.85"/>
			<line class="st1" x1="22.55" y1="11.44" x2="23.95" y2="10.74"/>
			<line class="st1" x1="23.54" y1="12.9" x2="23.89" y2="10.85"/>
			<line class="st1" x1="25.88" y1="10.74" x2="23.95" y2="10.74"/>
			<line class="st1" x1="24.01" y1="10.56" x2="23.83" y2="8.17"/>
			<line class="st1" x1="23.72" y1="10.56" x2="22.14" y2="9.68"/>
			<line class="st1" x1="21.55" y1="8.87" x2="23.83" y2="8.17"/>
			<line class="st1" x1="22.02" y1="6.18" x2="20.56" y2="5.89"/>
			<line class="st1" x1="19.04" y1="6.82" x2="20.15" y2="6"/>
			<line class="st1" x1="16.65" y1="7.11" x2="16" y2="4.25"/>
			<line class="st1" x1="13.49" y1="4.72" x2="16" y2="4.25"/>
			<line class="st1" x1="20.21" y1="5.83" x2="16.53" y2="4.48"/>
		</g>
		<polyline class="st1" points="21.88,26.6 14.16,27.65 9.55,26.13 5.69,22.28 4.12,16.23 7.81,14.98 5.93,12.56 4.45,15.85 
			4.12,15.85 6.07,8.75 13,12.93 10.25,16.61 12.41,19.47 14.88,17.13 15.6,20.08 12.41,19.65 15.65,24.06 11.13,23.27 8.73,19.18 
			7.74,15.26 10.02,16.5 8.88,18.94 8.56,19.27 5.93,22.1 10.98,23.3 13.96,27.39 14.43,27.33 15.71,24.35 		"/>
	</g>
	<g>
		<line class="st1" x1="12.07" y1="19.65" x2="8.81" y2="19.32"/>
		<polyline class="st1" points="8.32,19.08 5.93,18.24 4.44,16.34 		"/>
		<polyline class="st1" points="7.42,15.47 5.93,18.09 5.78,21.89 		"/>
		<line class="st1" x1="11.27" y1="23.06" x2="12.41" y2="19.99"/>
		<line class="st1" x1="12.56" y1="18.97" x2="12.67" y2="14.77"/>
	</g>
</g>
<g>
	<path class="st2" d="M23.1,18.42c-0.14,0.35,0.05,0.74,0.16,0.96c0.33,0.61,0.14,1.24,0.25,1.85c0.06,0.34-0.17,0.59-0.42,0.78
		c-0.14,0.11-0.3,0.19-0.46,0.26c-0.32,0.14-0.49,0.44-0.75,0.64c-0.4,0.31,0.01,0.59,0.04,0.89c0.03,0.41,0.08,0.83-0.47,0.99
		c-0.13,0.04-0.34,0.12-0.35,0.35c-0.03,1.11-0.85,1.74-1.5,2.48c-0.22,0.25-0.54,0.33-0.84,0.37c-0.55,0.08-1.1,0.09-1.66,0.23
		c-0.37,0.09-0.65-0.3-0.6-0.62c0.1-0.6-0.21-1.08-0.49-1.44c-0.43-0.56-0.5-1.18-0.67-1.79c-0.13-0.49-0.24-1-0.54-1.4
		c-0.63-0.81-0.22-1.52,0.13-2.23c0.16-0.31,0.29-0.52,0.11-0.9c-0.16-0.34-0.11-0.76-0.29-1.15c-0.16-0.35-0.32-0.66-0.59-0.92
		c-0.35-0.34-0.55-0.65-0.38-1.25c0.31-1.1,0.12-1.22-1.08-1.17c-0.03-0.03-0.06-0.04-0.1-0.03c-0.09-0.46-0.35-0.64-0.83-0.58
		c-0.37,0.05-0.72,0.14-1.06,0.29c-0.29,0.12-0.55,0.21-0.88,0.09c-0.53-0.19-1,0.2-1.51,0.26c-0.36-0.29-0.72-0.57-1.08-0.86
		c-0.58-0.28-0.63-1-1.15-1.34c-0.32-0.21-0.55-0.49-0.53-0.95c0.01-0.13-0.04-0.24,0.04-0.4c0.28-0.57,0.37-1.18,0.03-1.75
		c-0.2-0.35,0.26-0.57,0.07-0.94C5.53,8.8,5.8,8.59,6.19,8.57c0.06,0,0.09-0.16,0.16-0.23c0.32-0.29,0.49-0.71,0.96-0.88
		c0.33-0.12,0.59-0.4,0.53-0.88C7.8,6.25,7.98,5.88,8.33,5.71C8.65,5.55,8.87,5.34,8.98,5c0.06-0.19,0.14-0.18,0.34-0.11
		c0.46,0.16,0.91,0.21,1.38-0.11c0.71-0.49,1.58-0.39,2.4-0.47c0.1-0.01,0.2,0.03,0.29,0.01c0.31-0.1,0.61-0.12,0.9,0.06
		c-0.21,0.33,0.2,0.84-0.39,1.06c0.38,0.25,0.65,0.55,1.11,0.39c0.2-0.07,0.4,0.11,0.45,0.21c0.25,0.5,0.78,0.46,1.17,0.69
		c0.29,0.17,0.47,0.03,0.44-0.28c-0.03-0.35,0.18-0.47,0.44-0.6c0.26-0.13,0.35,0.1,0.52,0.17c0.71,0.29,1.43,0.69,2.24,0.42
		c0.64-0.21,1.36,0.1,1.41,0.63C21.7,7.2,21.7,7.4,21.62,7.46c-0.48,0.39-0.05,0.7,0.05,1.06c0.19,0.73,0.96,1.22,0.83,2.06
		c0.56,0.37,0.44,1.21,1.12,1.55c0.32,0.16,0.82,0.37,0.77,0.98c-0.02,0.17,0.27,0.44,0.59,0.32c0.57-0.22,1.21-0.18,1.78-0.45
		c0.26,0.87-0.4,1.4-0.72,2.03c-0.38,0.77-1.18,1.15-1.76,1.74c-0.28,0.29-0.6,0.54-0.79,0.91C23.33,17.9,23.09,18.09,23.1,18.42z"
		/>
	<path class="st2" d="M26.19,20.56c0.34,0.42,0.34,0.81,0.22,1.29c-0.22,0.86-0.54,1.69-0.76,2.55c-0.1,0.39-0.34,0.5-0.67,0.52
		c-0.34,0.03-0.41-0.23-0.46-0.5c-0.01-0.04-0.01-0.1-0.03-0.11c-0.6-0.28-0.2-0.62-0.01-0.89c0.26-0.38,0.28-0.71,0.11-1.14
		c-0.12-0.3-0.2-0.74,0.43-0.57c0.26,0.07,0.44-0.12,0.58-0.3C25.81,21.17,25.98,20.88,26.19,20.56z"/>
</g>
<g>
	<circle class="st2" cx="26.2" cy="17.13" r="0.35"/>
	<g>
		<g>
			<g>
				<circle class="st2" cx="24.45" cy="12.93" r="0.35"/>
			</g>
			<g>
				<circle class="st2" cx="24.33" cy="16.67" r="0.41"/>
			</g>
			<g>
				<circle class="st2" cx="7.74" cy="15.03" r="0.82"/>
			</g>
			<g>
				<circle class="st2" cx="5.69" cy="22.1" r="0.7"/>
			</g>
			<g>
				<circle class="st2" cx="8.73" cy="19.18" r="0.47"/>
			</g>
			<g>
				<circle class="st2" cx="4.23" cy="16.08" r="0.47"/>
			</g>
			<g>
				<circle class="st2" cx="11.13" cy="23.27" r="0.47"/>
			</g>
			<g>
				<circle class="st2" cx="23.04" cy="25.9" r="0.47"/>
			</g>
			<g>
				<circle class="st2" cx="25.32" cy="19.94" r="0.47"/>
			</g>
			<g>
				<circle class="st2" cx="26.84" cy="20.58" r="0.41"/>
			</g>
			<g>
				<circle class="st2" cx="23.51" cy="18.54" r="0.41"/>
			</g>
			<g>
				<circle class="st2" cx="28.13" cy="17.37" r="0.23"/>
			</g>
			<g>
				<circle class="st2" cx="26.14" cy="15.5" r="0.23"/>
			</g>
			<g>
				<circle class="st2" cx="27.89" cy="15.79" r="0.23"/>
			</g>
			<g>
				<circle class="st2" cx="28.13" cy="13.39" r="0.35"/>
			</g>
			<g>
				<circle class="st2" cx="26.84" cy="12.34" r="0.35"/>
			</g>
			<g>
				<circle class="st2" cx="27.48" cy="10.59" r="0.29"/>
			</g>
			<g>
				<circle class="st2" cx="25.62" cy="9.07" r="0.18"/>
			</g>
			<g>
				<circle class="st2" cx="23.86" cy="8.19" r="0.29"/>
			</g>
			<g>
				<circle class="st2" cx="25.38" cy="7.14" r="0.18"/>
			</g>
			<g>
				<circle class="st2" cx="22.17" cy="7.43" r="0.18"/>
			</g>
			<g>
				<circle class="st2" cx="20.36" cy="5.92" r="0.44"/>
			</g>
			<g>
				<circle class="st2" cx="18.95" cy="3.7" r="0.21"/>
			</g>
			<g>
				<circle class="st2" cx="23.98" cy="10.77" r="0.41"/>
			</g>
			<g>
				<circle class="st2" cx="16.15" cy="4.22" r="0.58"/>
			</g>
			<g>
				<circle class="st2" cx="22.46" cy="23.33" r="0.58"/>
			</g>
			<g>
				<circle class="st2" cx="9.55" cy="26.13" r="0.47"/>
			</g>
			<g>
				<circle class="st2" cx="10.25" cy="16.61" r="0.47"/>
			</g>
			<g>
				<circle class="st2" cx="5.93" cy="18.24" r="0.35"/>
			</g>
			<g>
				<circle class="st2" cx="12.41" cy="19.65" r="0.82"/>
			</g>
			<g>
				<circle class="st2" cx="14.16" cy="27.65" r="0.82"/>
			</g>
		</g>
	</g>
</g>
</svg>
